<svg id="Layer_1" data-name="Layer 1" xmlns="http://www.w3.org/2000/svg" xmlns:xlink="http://www.w3.org/1999/xlink" viewBox="0 0 168.43 167.78"><defs><style>.cls-1{fill:#e6e7e8;stroke:#231f20;stroke-linecap:round;}.cls-1,.cls-3,.cls-4{stroke-miterlimit:10;}.cls-2{fill:#fff;}.cls-3{fill:#c00;}.cls-3,.cls-4{stroke:#c00;stroke-width:2px;}.cls-4{fill:url(#linear-gradient);}</style><linearGradient id="linear-gradient" x1="99.8" y1="85.7" x2="99.8" y2="150.16" gradientUnits="userSpaceOnUse"><stop offset="0" stop-color="#fff"/><stop offset="1"/></linearGradient></defs><title>labs-logo</title><circle class="cls-1" cx="85.74" cy="47.18" r="15.25"/><path class="cls-2" d="M91.5,16.9c-.7,1.3,1.7,2.4,4,1.9.9-.1,1.6-.8,1.6-1.3C97.1,16.1,92.3,15.6,91.5,16.9Z" transform="translate(-14.06 -16.15)"/><path class="cls-2" d="M102.5,16.9c-.7,1.3,1.7,2.4,4,1.9.9-.1,1.6-.8,1.6-1.3C108.1,16.1,103.3,15.6,102.5,16.9Z" transform="translate(-14.06 -16.15)"/><path class="cls-2" d="M80.5,18c-1.1,1.7.3,2.8,3,2.2,3.2-.6,3.3-3.2.1-3.2C82.2,17,80.8,17.4,80.5,18Z" transform="translate(-14.06 -16.15)"/><path class="cls-2" d="M114,18.4c0,.9,1.1,1.8,2.5,2.2,4.8,1.2,4.5-1.6-.2-3.1C114.6,17,114,17.3,114,18.4Z" transform="translate(-14.06 -16.15)"/><path class="cls-2" d="M69.4,21.1a1.85,1.85,0,0,0,.2,1.9c1.1,1,5.4-.6,5.4-2S70.3,19.7,69.4,21.1Z" transform="translate(-14.06 -16.15)"/><path class="cls-2" d="M125,21.5a3.72,3.72,0,0,0,1.9,2.5c2.7,1.4,4-.9,1.6-2.7S125,19.6,125,21.5Z" transform="translate(-14.06 -16.15)"/><path class="cls-2" d="M59.3,24.6a3.63,3.63,0,0,0,1.1,3.2c1.4,1.5,1.8,1.5,3.1.1a3.16,3.16,0,0,0,.9-3.2C63.6,22.6,60.1,22.5,59.3,24.6Z" transform="translate(-14.06 -16.15)"/><path class="cls-2" d="M135,25.9c0,1.6,3,3.3,4.7,2.6s1.7-.7-.1-2.1C137.4,24.8,135,24.5,135,25.9Z" transform="translate(-14.06 -16.15)"/><path class="cls-2" d="M50.6,30.6c-2.3,2.3-.6,4,2.3,2.2,1.2-.7,2-1.7,1.8-2.2C54.1,28.9,52.3,28.9,50.6,30.6Z" transform="translate(-14.06 -16.15)"/><path class="cls-2" d="M145.4,31.4c-.8,2.1,2.6,5,4.1,3.5.6-.6.1-1.7-1.2-3.1C146.3,29.8,146,29.8,145.4,31.4Z" transform="translate(-14.06 -16.15)"/><path class="cls-2" d="M90.2,32.1c-2.3.9-2.6,3.5-.4,3.3.7-.1,2.1-.2,3.3-.3s1.9-.7,1.7-1.8C94.4,31.2,93.1,30.9,90.2,32.1Z" transform="translate(-14.06 -16.15)"/><path class="cls-2" d="M100,32.9c0,1.7.6,2.1,3.1,2.1s3-.4,2.7-1.8c-.2-1-1.4-1.8-3.1-2C100.5,30.9,100,31.3,100,32.9Z" transform="translate(-14.06 -16.15)"/><path class="cls-2" d="M79.3,34c-2.2.9-3.3,4-1.4,4,2.8,0,6-2.1,5.5-3.5C82.7,32.8,82.4,32.8,79.3,34Z" transform="translate(-14.06 -16.15)"/><path class="cls-2" d="M111,34.5c0,1.5,4.6,3.2,5.7,2.2a2.73,2.73,0,0,0,0-2.2C115.9,32.5,111,32.5,111,34.5Z" transform="translate(-14.06 -16.15)"/><path class="cls-2" d="M121.6,35.6a5,5,0,0,0-1.6,2.9c0,2,2.8,4.5,5,4.5s5-2.5,5-4.5-2.8-4.5-5-4.5A5.39,5.39,0,0,0,121.6,35.6Zm4.4,2.9c0,.8-.4,1.5-.9,1.5-1.3,0-2.2-1.6-1.4-2.4C124.8,36.5,126,37,126,38.5Z" transform="translate(-14.06 -16.15)"/><path class="cls-2" d="M42.2,37.2c-1.4,1.4-1.6,3.8-.4,3.8,1.4,0,4.3-3.6,3.5-4.3C44.4,35.7,43.6,35.8,42.2,37.2Z" transform="translate(-14.06 -16.15)"/><path class="cls-2" d="M68.8,38.1c-2.1,1.2-2.4,3.9-.5,3.9,2.2,0,5.1-2.6,4.3-3.8C71.7,36.8,71,36.7,68.8,38.1Z" transform="translate(-14.06 -16.15)"/><path class="cls-2" d="M153.6,38.9c-.8,1.2,3.1,4.4,4.4,3.6.8-.5.6-1.3-.6-2.6C155.5,37.8,154.4,37.5,153.6,38.9Z" transform="translate(-14.06 -16.15)"/><path class="cls-2" d="M132,43c0,1.3.9,2.2,2.5,2.6,3.6.9,4.4-.4,1.6-2.7C133.1,40.5,132,40.5,132,43Z" transform="translate(-14.06 -16.15)"/><path class="cls-2" d="M58.8,44.1c-2,1.1-2.4,3.9-.7,3.9,2,0,4.9-2.1,4.9-3.5C63,42.8,61.3,42.6,58.8,44.1Z" transform="translate(-14.06 -16.15)"/><path class="cls-2" d="M34.2,45.2c-1.6,1.6-1.5,3.8.1,3.8,1.4,0,3.9-3.5,3-4.4S35.5,43.9,34.2,45.2Z" transform="translate(-14.06 -16.15)"/><path class="cls-2" d="M161.5,47.1c-.4.5.1,1.9,1.1,3,2.3,2.5,4.1.9,2.2-2C163.4,45.8,162.4,45.5,161.5,47.1Z" transform="translate(-14.06 -16.15)"/><path class="cls-3" d="M92.4,48.4c-4.2,1.9-8.5,7.7-9.1,12.4C81.8,72.1,93,82,104,79c14.3-3.8,16.7-24.2,3.6-30.4A21.51,21.51,0,0,0,92.4,48.4Zm15.1,3c6.1,4,8.1,12.2,4.5,18.1-7.8,12.6-26,8-26-6.5,0-6.6,3.3-11,10-13.4C98.5,48.7,104.9,49.7,107.5,51.4Z" transform="translate(-14.06 -16.15)"/><path class="cls-2" d="M141,49.3a5.13,5.13,0,0,0,1.8,3c1.4,1.3,2.1,1.4,3,.5s.8-1.6-.5-3C143.4,47.7,141,47.4,141,49.3Z" transform="translate(-14.06 -16.15)"/><path class="cls-2" d="M49.4,52.1c-1.5,1.7-1.6,2.2-.4,2.9,1.6,1,5-1.4,5-3.7C54,49.3,51.6,49.7,49.4,52.1Z" transform="translate(-14.06 -16.15)"/><path class="cls-2" d="M27.2,55c-1.6,2.5-1.5,3,.3,3,1.2,0,3.5-2.8,3.5-4.4C31,52.2,28.4,53.2,27.2,55Z" transform="translate(-14.06 -16.15)"/><path class="cls-2" d="M167.6,55.8c-.7,1.1,3.1,5.8,4,4.9.4-.4.2-1.8-.4-3.2C170.1,55,168.6,54.3,167.6,55.8Z" transform="translate(-14.06 -16.15)"/><path class="cls-2" d="M148.6,56.8c-.8,1.3,2.3,5.2,4,5.2s1.8-1.9,0-4.3C151.2,55.9,149.4,55.5,148.6,56.8Z" transform="translate(-14.06 -16.15)"/><path class="cls-2" d="M42.6,60.2c-1.6,2.2-1.3,3.8.7,3.8,1.6,0,3.9-3.8,3.2-5Q45,56.6,42.6,60.2Z" transform="translate(-14.06 -16.15)"/><path class="cls-2" d="M21.9,65.1c-1.6,3.1.4,4.7,2.4,1.8,1.6-2.2,1.4-3.9-.3-3.9C23.5,63,22.6,63.9,21.9,65.1Z" transform="translate(-14.06 -16.15)"/><path class="cls-2" d="M170.8,66.5c-.9,2.1-.8,2.8.7,4.5,2.4,2.7,5.1,2.5,7-.4,2.3-3.4.5-6.6-3.6-6.6C172.7,64,171.7,64.6,170.8,66.5Zm5.2,1.4a1.9,1.9,0,0,1-1,1.6c-.5.3-1-.1-1-.9s.5-1.6,1-1.6A.92.92,0,0,1,176,67.9Z" transform="translate(-14.06 -16.15)"/><path class="cls-2" d="M34.9,66.3C30.4,69.7,32.5,77,38,77a5.62,5.62,0,0,0,6-6C44,66.3,38.5,63.5,34.9,66.3ZM41,71.5c0,2-.5,2.5-2.5,2.5S36,73.5,36,71.5s.5-2.5,2.5-2.5S41,69.5,41,71.5Z" transform="translate(-14.06 -16.15)"/><path class="cls-2" d="M155.5,66.2c-.8,2,1.2,6.1,2.8,5.5,1.9-.6,1.8-2.3-.2-4.8C156.4,64.8,156.1,64.7,155.5,66.2Z" transform="translate(-14.06 -16.15)"/><path class="cls-2" d="M18.1,75.2c-1.1,2.8.5,5,1.9,2.8,1.3-2,1.3-5,0-5C19.4,73,18.5,74,18.1,75.2Z" transform="translate(-14.06 -16.15)"/><path class="cls-2" d="M160,77.3c0,2.7,1.2,4.7,2.7,4.7,2.1,0,1.3-5.4-.9-5.8C160.7,76,160,76.5,160,77.3Z" transform="translate(-14.06 -16.15)"/><path class="cls-2" d="M177.2,78.6c.2,1.5.9,2.9,1.6,3.2,1,.3,1.3-.4,1-2.4-.2-1.5-.9-2.9-1.6-3.2C177.2,75.9,176.9,76.6,177.2,78.6Z" transform="translate(-14.06 -16.15)"/><path class="cls-2" d="M32.9,80.7c-1,2.8.1,5,2,3.9,1.4-.9,1.4-6.6.1-6.6C34.4,78,33.5,79.2,32.9,80.7Z" transform="translate(-14.06 -16.15)"/><path class="cls-4" d="M119.68,87.87c7.9,3.8,10.7,11.4,11,29.3l.2,13.2-4.1,4.2-4.1,4.1-.7-10.9c-1.1-16.7-1.8-22.3-2.9-22.3-.6,0-.7,3.8-.3,10.7.4,6,.9,15.1,1.3,20.4.7,11.4.9,11.2-11.2,13.1-8,1.2-21.5.1-26.6-2.2-2.9-1.3-2.9-.2-1-28.5.5-6.6.6-12.4.4-12.8-1.3-2.1-2.1,1.6-2.8,11.6-.4,6-1,13-1.4,15.5l-.6,4.7-3.3-3.3a23.55,23.55,0,0,1-4.3-6c-1.7-4.3.8-27.9,3.5-32.9,2-3.9,7-8.1,10.4-8.9a28.7,28.7,0,0,0,3.7-1c.6-.2,7.3-.2,15-.1C112.88,86.07,116.68,86.47,119.68,87.87Z" transform="translate(-14.06 -16.15)"/><path class="cls-3" d="M79.3,84.9c-5.2,2.4-9.7,8.5-11.3,15.2-.7,2.8-1.3,10.8-1.4,17.8-.1,14,.4,15.5,7.2,20.1,2.6,1.9,3.2,2.9,3.2,6,0,4.1.8,4.7,9.5,6.9,5.4,1.4,21.5,1.4,27.3-.1,7.1-1.7,9.5-3.6,9-6.9-.4-2.3.3-3.4,3.3-5.8a27.7,27.7,0,0,0,5.9-7.6c2.1-4.3,2.1-5.1,1.2-16.8-1.6-18-4.4-24.2-13.4-28.8-3.2-1.6-5.9-1.9-20-1.9C85.9,83,82.9,83.3,79.3,84.9Zm40,2.5c7.9,3.8,10.7,11.4,11,29.3l.2,13.2-4.1,4.2-4.1,4.1-.7-10.9c-1.1-16.7-1.8-22.3-2.9-22.3-.6,0-.7,3.8-.3,10.7.4,6,.9,15.1,1.3,20.4.7,11.4.9,11.2-11.2,13.1-8,1.2-21.5.1-26.6-2.2-2.9-1.3-2.9-.2-1-28.5.5-6.6.6-12.4.4-12.8-1.3-2.1-2.1,1.6-2.8,11.6-.4,6-1,13-1.4,15.5l-.6,4.7-3.3-3.3a23.55,23.55,0,0,1-4.3-6c-1.7-4.3.8-27.9,3.5-32.9,2-3.9,7-8.1,10.4-8.9a28.7,28.7,0,0,0,3.7-1c.6-.2,7.3-.2,15-.1C112.5,85.6,116.3,86,119.3,87.4Z" transform="translate(-14.06 -16.15)"/><path class="cls-2" d="M15.6,85.5c-1,2.8-.7,4.5.9,4.5.8,0,1.5-.9,1.5-2a18.64,18.64,0,0,1,.1-2.7C18.2,83.8,16.2,84,15.6,85.5Z" transform="translate(-14.06 -16.15)"/><path class="cls-2" d="M163.3,87.1a4.59,4.59,0,0,0-.5,3.5c.6,3.4,3.8,2.8,3.4-.6C165.9,86.9,164.7,85.7,163.3,87.1Z" transform="translate(-14.06 -16.15)"/><path class="cls-2" d="M179.2,89.6c.2,1.5.9,2.9,1.6,3.2,1,.3,1.3-.4,1-2.4-.2-1.5-.9-2.9-1.6-3.2C179.2,86.9,178.9,87.6,179.2,89.6Z" transform="translate(-14.06 -16.15)"/><path class="cls-2" d="M30.7,89.6c-.4.4-.7,2-.7,3.6,0,2.3.4,2.9,1.8,2.6,1.1-.2,1.7-1.3,1.7-3.2C33.5,89.7,32.1,88.3,30.7,89.6Z" transform="translate(-14.06 -16.15)"/><path class="cls-2" d="M14.4,96.4c-.8,2-.1,4.7,1.1,4.9.6.1,1.1-1.3,1.3-3.1C17.1,95,15.4,93.7,14.4,96.4Z" transform="translate(-14.06 -16.15)"/><path class="cls-2" d="M163.8,100.4a6.24,6.24,0,0,0,.2,3.7c1.2,1.9,3,0,3-3.2C167,97.3,164.4,96.9,163.8,100.4Z" transform="translate(-14.06 -16.15)"/><path class="cls-2" d="M180.2,101.1c.2,1.9.8,3.3,1.3,3.1,1.5-.3,1.2-5.5-.3-6C180.2,97.9,179.9,98.7,180.2,101.1Z" transform="translate(-14.06 -16.15)"/><path class="cls-2" d="M30.2,104.2c.4,4.3,3.3,4.6,3.3.3,0-2.1-.6-3.1-1.8-3.3C30.2,100.9,29.9,101.4,30.2,104.2Z" transform="translate(-14.06 -16.15)"/><path class="cls-2" d="M15.2,109.4c.2,1.5.8,2.6,1.3,2.6,1.5,0,1.2-4.3-.3-4.8C15.2,106.9,14.9,107.6,15.2,109.4Z" transform="translate(-14.06 -16.15)"/><path class="cls-2" d="M163.1,110.4c-1.6,1.9-1,5.1.9,5.1,1.7,0,2.6-4.3,1.2-5.7C164.7,109.3,163.8,109.5,163.1,110.4Z" transform="translate(-14.06 -16.15)"/><path class="cls-2" d="M179,113c0,3.2,1.4,4,2.4,1.4s.7-4.4-.9-4.4Q179,110,179,113Z" transform="translate(-14.06 -16.15)"/><path class="cls-2" d="M31.6,112.9c-.8,1.3,1.1,6.1,2.4,6.1,1.7,0,2.3-2.7,1-4.9C33.9,111.9,32.5,111.4,31.6,112.9Z" transform="translate(-14.06 -16.15)"/><path class="cls-2" d="M17.2,120.7c.4,3.9,2.8,4.2,2.8.4,0-2.1-.5-3.1-1.6-3.1S17,118.8,17.2,120.7Z" transform="translate(-14.06 -16.15)"/><path class="cls-2" d="M157.3,119.2c-2.3,3-2.3,4.9.2,7.4,1.3,1.3,3,2.4,3.8,2.4,2,0,5.7-3.8,5.7-5.9C167,119.1,159.7,116.2,157.3,119.2Zm5.5,4.1c.2,1.2-.3,1.7-1.7,1.7s-2.1-.6-2.1-2.1C159,120.4,162.3,120.7,162.8,123.3Z" transform="translate(-14.06 -16.15)"/><path class="cls-2" d="M33,122.2c-2.4,2.6-2.5,4.6-.4,7.6,1.9,2.7,6.4,2.9,8.7.4s2.1-6.8-.5-8.6C37.7,119.4,35.4,119.6,33,122.2Zm6.5,4.3c0,2.2-3.1,3.3-4.7,1.7s-.1-4.4,2.4-4C38.7,124.4,39.5,125.2,39.5,126.5Z" transform="translate(-14.06 -16.15)"/><path class="cls-2" d="M176.5,123.1c-1.1,3.4,1.2,4.8,2.5,1.5,1.3-3.5,1.3-3.6-.4-3.6A2.64,2.64,0,0,0,176.5,123.1Z" transform="translate(-14.06 -16.15)"/><path class="cls-2" d="M20,129.9c0,2.1,1.3,4.1,2.6,4.1,1.5,0,1.7-1,.8-3.4C22.7,128.9,20,128.4,20,129.9Z" transform="translate(-14.06 -16.15)"/><path class="cls-2" d="M154.5,132.6c-1.3,2-1.4,2.9-.5,3.8,1.5,1.4,5.2-2.8,4.3-4.9S156.5,129.7,154.5,132.6Z" transform="translate(-14.06 -16.15)"/><path class="cls-2" d="M173.1,132.8c-1.4,2.5-1.4,4.2-.1,4.2,1.6,0,3.3-4.1,2.2-5.2C174.5,131.1,173.8,131.5,173.1,132.8Z" transform="translate(-14.06 -16.15)"/><path class="cls-2" d="M40,134.1c0,2,2.1,4.9,3.5,4.9,1.8,0,1.9-1.4.5-4.1C42.9,132.9,40,132.3,40,134.1Z" transform="translate(-14.06 -16.15)"/><path class="cls-2" d="M25,140.1c0,1.7,2,4.9,3,4.9,1.4,0,1.2-3.4-.2-4.8S25,138.7,25,140.1Z" transform="translate(-14.06 -16.15)"/><path class="cls-2" d="M148,142.5c-.7,1.4-1,2.8-.6,3.2,1.1,1.2,4.1-1.2,4.4-3.6C152.3,139.2,149.7,139.4,148,142.5Z" transform="translate(-14.06 -16.15)"/><path class="cls-2" d="M167.6,143.2c-2.1,2.9-.3,5.1,1.9,2.2,1.7-2.3,1.8-3.1.6-3.9C169.6,141.2,168.4,142,167.6,143.2Z" transform="translate(-14.06 -16.15)"/><path class="cls-2" d="M47,143.1c0,2,2.1,4.9,3.5,4.9,1.8,0,1.9-1.9.1-4.3C49.1,141.8,47,141.4,47,143.1Z" transform="translate(-14.06 -16.15)"/><path class="cls-2" d="M31.5,149c-1,1.6,2.6,5.3,3.9,4,.7-.7.4-1.7-1.1-3.1S32,148.1,31.5,149Z" transform="translate(-14.06 -16.15)"/><path class="cls-2" d="M140.8,149.4c-1.8,1.3-2.5,4.6-1,4.6,1.7-.1,5.4-3.8,4.8-4.9C143.7,147.7,142.9,147.7,140.8,149.4Z" transform="translate(-14.06 -16.15)"/><path class="cls-2" d="M55,151.3c0,1.9,2.1,3.7,4.2,3.7,2.3,0,2.3-1.9.1-3.6S55,149.6,55,151.3Z" transform="translate(-14.06 -16.15)"/><path class="cls-2" d="M160,152.9c-.6,1.2-.6,2.2-.1,2.5,1,.7,4.1-2,4.1-3.5C164,150.2,161.1,151,160,152.9Z" transform="translate(-14.06 -16.15)"/><path class="cls-2" d="M130.4,156.4c-1.5,1.1-1.6,1.7-.7,2.7s1.8.8,3.8-.5c2.5-1.7,2.6-3.6.1-3.6A7.06,7.06,0,0,0,130.4,156.4Z" transform="translate(-14.06 -16.15)"/><path class="cls-2" d="M64.5,157c-.9,1.5,1.4,4,3.6,4,2.5,0,2.4-2.6,0-4S65.3,155.7,64.5,157Z" transform="translate(-14.06 -16.15)"/><path class="cls-2" d="M38.6,157.9c-.8,1.2,3.1,4.4,4.4,3.6.8-.5.6-1.3-.6-2.6C40.5,156.8,39.4,156.5,38.6,157.9Z" transform="translate(-14.06 -16.15)"/><path class="cls-2" d="M152.6,160.5c-1.5,1.1-1.7,1.8-.8,2.7,1.3,1.3,4.2-.6,4.2-2.8C156,158.6,155,158.7,152.6,160.5Z" transform="translate(-14.06 -16.15)"/><path class="cls-2" d="M120.8,160.7c-1.9.5-2.4,2.8-1,3.7,1.7,1,5.2-.7,5.2-2.5S124.2,159.8,120.8,160.7Z" transform="translate(-14.06 -16.15)"/><path class="cls-2" d="M74.7,161.7c-1.2,1.2-.7,2,2,3.2,3.5,1.6,5.8-.3,2.9-2.5C77.5,160.9,75.7,160.6,74.7,161.7Z" transform="translate(-14.06 -16.15)"/><path class="cls-2" d="M46.2,163.2c-2,2-1.4,5.6,1.2,7.3,2,1.4,2.8,1.4,4.5.3,3-1.8,3.6-4.6,1.5-6.9C51.5,161.8,48,161.4,46.2,163.2Zm4.8,3.3a1.54,1.54,0,0,1-1.5,1.5c-1.6,0-2-1.2-.8-2.3S51,164.9,51,166.5Z" transform="translate(-14.06 -16.15)"/><path class="cls-2" d="M110.2,163.7c-2.1.4-2.9,3.5-.9,3.4a18.64,18.64,0,0,1,2.7-.1,1.8,1.8,0,0,0,2-2c0-1.1-.3-1.9-.7-1.9S111.5,163.5,110.2,163.7Z" transform="translate(-14.06 -16.15)"/><path class="cls-2" d="M85.5,165.1a1.54,1.54,0,0,0,.6,2c2,1.3,5.4.6,5.4-1.1S86.5,163.4,85.5,165.1Z" transform="translate(-14.06 -16.15)"/><path class="cls-2" d="M97,166.4c0,2,1.6,2.9,4,2.1,3.2-1,2.5-3.5-1-3.5C98.1,165,97,165.5,97,166.4Z" transform="translate(-14.06 -16.15)"/><path class="cls-2" d="M143.6,167.5c-1.4,1.1-1.7,1.8-.9,2.6,1.3,1.3,5.3-.9,5.3-2.8C148,165.6,146,165.7,143.6,167.5Z" transform="translate(-14.06 -16.15)"/><path class="cls-2" d="M56.4,171.1c-.7,1.1,2.3,3.8,4.4,3.9s1.3-2.6-1.3-3.8C57.9,170.4,56.9,170.4,56.4,171.1Z" transform="translate(-14.06 -16.15)"/><path class="cls-2" d="M133.5,173.3c-1.2,1-1.5,1.6-.6,2.1,1.6,1,5.1-.3,5.1-2S135.9,171.6,133.5,173.3Z" transform="translate(-14.06 -16.15)"/><path class="cls-2" d="M67,176.4c0,1.9,3.9,3.1,5.3,1.7.7-.7.2-1.3-1.7-2.1C67.1,174.7,67,174.7,67,176.4Z" transform="translate(-14.06 -16.15)"/><path class="cls-2" d="M123.8,177.1c-2.4,1.3-2.3,2.9.1,2.9,2.1,0,4.5-2.3,3.4-3.3C126.5,175.8,125.8,175.9,123.8,177.1Z" transform="translate(-14.06 -16.15)"/><path class="cls-2" d="M77,180c0,1.4,4.3,3,5.4,2a1.85,1.85,0,0,0,.2-1.9C81.7,178.7,77,178.7,77,180Z" transform="translate(-14.06 -16.15)"/><path class="cls-2" d="M113.3,179.8c-1.3.2-2.3,1-2.3,1.8,0,1.6,2.8,1.8,5,.4C118,180.8,116.2,179.3,113.3,179.8Z" transform="translate(-14.06 -16.15)"/><path class="cls-2" d="M88.5,181.9c-.7,1.3,1.7,2.4,4,1.9.9-.1,1.6-.8,1.6-1.3C94.1,181.1,89.3,180.6,88.5,181.9Z" transform="translate(-14.06 -16.15)"/><path class="cls-2" d="M100,182.5c0,1.2.7,1.5,2.5,1.3,1.4-.2,2.6-.8,2.6-1.3s-1.2-1.1-2.6-1.3C100.7,181,100,181.3,100,182.5Z" transform="translate(-14.06 -16.15)"/></svg>